# File created by Blade
# Date/Time:  Wed Jan 28 15:39:58 2015
#---------------------------------------------------------
:version 1.10
:name HOM
:units
  mass 1.0
  length 1.000000
  angle deg
:documentation
     Acclaim Skeleton File
:root
   axis xyz
   order TX TY TZ RX RY RZ
   position 0.000000 0.000000 0.000000
   orientation 0 0 0
:bonedata
   begin
      id 1
      name Spine_dum
      direction 0.000000 1.000000 0.000000
      length 6.864287
      axis 0.0 0.0 0.0 xyz
   end
   begin
      id 2
      name LeftUpLeg_dum
      direction 1.000000 0.000000 0.000000
      length 4.117376
      axis 0.0 0.0 0.0 xyz
   end
   begin
      id 3
      name RightUpLeg_dum
      direction -1.000000 0.000000 0.000000
      length 4.117376
      axis 0.0 0.0 0.0 xyz
   end
   begin
      id 4
      name Spine
      direction 0.000000 1.000000 0.000000
      length 0.000000
      axis 0.0 0.0 0.0 xyz
      dof rx ry rz
   end
   begin
      id 5
      name Spine_dum1
      direction 0.000000 1.000000 0.000000
      length 15.393827
      axis 0.0 0.0 0.0 xyz
   end
   begin
      id 6
      name Spine_dum2
      direction 0.000000 1.000000 0.000000
      length 9.314826
      axis 0.0 0.0 0.0 xyz
   end
   begin
      id 7
      name Spine_dum3
      direction 0.000000 1.000000 0.000000
      length 9.314826
      axis 0.0 0.0 0.0 xyz
   end
   begin
      id 8
      name Head
      direction 0.000000 1.000000 0.000000
      length 4.527550
      axis 0.0 0.0 0.0 xyz
      dof rx ry rz
   end
   begin
      id 9
      name LeftShoulder
      direction 1.000000 0.000000 0.000000
      length 8.275398
      axis 0.0 0.0 -90.0 xyz
      dof rx ry rz
   end
   begin
      id 10
      name LeftArm
      direction 1.000000 0.000000 0.000000
      length 12.002200
      axis 0.0 0.0 -90.0 xyz
      dof rx ry rz
   end
   begin
      id 11
      name LeftForeArm
      direction 1.000000 0.000000 0.000000
      length 10.144633
      axis 0.0 0.0 -90.0 xyz
      dof ry rz rx
   end
   begin
      id 12
      name LeftHand
      direction 0.000000 0.000000 0.000000
      length 0.000000
      axis 0.0 0.0 -90.0 xyz
      dof rx ry rz
   end
   begin
      id 13
      name LeftHand_dum1
      direction 0.000000 0.000000 0.000000
      length 0.000000
      axis 0.0 0.0 -90.0 xyz
   end
   begin
      id 14
      name LeftHand_dum2
      direction 1.000000 0.000000 0.000000
      length 3.937000
      axis 0.0 0.0 -90.0 xyz
   end
   begin
      id 15
      name LeftHandThumb1
      direction 0.000000 0.000000 1.000000
      length 3.937000
      axis 0.0 0.0 -90.0 xyz
      dof rx rz ry
   end
   begin
      id 16
      name RightShoulder
      direction -1.000000 0.000000 0.000000
      length 8.275398
      axis 0.0 0.0 90.0 xyz
      dof rx ry rz
   end
   begin
      id 17
      name RightArm
      direction -1.000000 0.000000 0.000000
      length 12.002200
      axis 0.0 0.0 90.0 xyz
      dof rx ry rz
   end
   begin
      id 18
      name RightForeArm
      direction -1.000000 0.000000 0.000000
      length 10.144633
      axis 0.0 0.0 90.0 xyz
      dof ry rz rx
   end
   begin
      id 19
      name RightHand
      direction 0.000000 0.000000 0.000000
      length 0.000000
      axis 0.0 0.0 90.0 xyz
      dof rx ry rz
   end
   begin
      id 20
      name RightHand_dum1
      direction 0.000000 0.000000 0.000000
      length 0.000000
      axis 0.0 0.0 90.0 xyz
   end
   begin
      id 21
      name RightHand_dum2
      direction -1.000000 0.000000 0.000000
      length 3.937000
      axis 0.0 0.0 90.0 xyz
   end
   begin
      id 22
      name RightHandThumb1
      direction 0.000000 0.000000 1.000000
      length 3.937000
      axis 0.0 0.0 90.0 xyz
      dof rx rz ry
   end
   begin
      id 23
      name LeftUpLeg
      direction 0.000000 -1.000000 0.000000
      length 19.394322
      axis 0.0 0.0 0.0 xyz
      dof rx ry rz
   end
   begin
      id 24
      name LeftLeg
      direction 0.000000 -1.000000 0.000000
      length 17.609563
      axis 0.0 0.0 0.0 xyz
      dof rx ry rz
   end
   begin
      id 25
      name LeftFoot
      direction 0.000000 -0.258819 0.965926
      length 6.085393
      axis 15.0 0.0 0.0 xyz
      dof rx ry rz
   end
   begin
      id 26
      name LeftToeBase
      direction 0.000000 0.000000 1.000000
      length 2.952750
      axis 0.0 0.0 0.0 xyz
      dof rx ry rz
   end
   begin
      id 27
      name RightUpLeg
      direction 0.000000 -1.000000 0.000000
      length 19.394322
      axis 0.0 0.0 0.0 xyz
      dof rx ry rz
   end
   begin
      id 28
      name RightLeg
      direction 0.000000 -1.000000 0.000000
      length 17.609563
      axis 0.0 0.0 0.0 xyz
      dof rx ry rz
   end
   begin
      id 29
      name RightFoot
      direction 0.000000 -0.258819 0.965926
      length 6.085393
      axis 15.0 0.0 0.0 xyz
      dof rx ry rz
   end
   begin
      id 30
      name RightToeBase
      direction 0.000000 0.000000 1.000000
      length 2.952750
      axis 0.0 0.0 0.0 xyz
      dof rx ry rz
   end
:hierarchy
   begin
      root Spine_dum LeftUpLeg_dum RightUpLeg_dum
      Spine_dum Spine
      LeftUpLeg_dum LeftUpLeg
      RightUpLeg_dum RightUpLeg
      Spine Spine_dum1 Spine_dum2 Spine_dum3
      Spine_dum1 Head
      Spine_dum2 LeftShoulder
      Spine_dum3 RightShoulder
      LeftShoulder LeftArm
      LeftArm LeftForeArm
      LeftForeArm LeftHand
      LeftHand LeftHand_dum1 LeftHand_dum2
      LeftHand_dum1 LeftHandThumb1
      RightShoulder RightArm
      RightArm RightForeArm
      RightForeArm RightHand
      RightHand RightHand_dum1 RightHand_dum2
      RightHand_dum1 RightHandThumb1
      LeftUpLeg LeftLeg
      LeftLeg LeftFoot
      LeftFoot LeftToeBase
      RightUpLeg RightLeg
      RightLeg RightFoot
      RightFoot RightToeBase
   end

# File created by Blade
# Date/Time:  Wed Jan 28 15:40:07 2015
# Frame Rate: 120.000 fps
#------------------------------------------------------
:FULLY-SPECIFIED
:DEGREES
808
root -5.963036 40.361295 -14.650006 9.437761 -51.953565 48.158859
Spine 12.852917 -1.908889 15.974855
Head -17.076229 -29.798768 -13.285684
LeftShoulder -17.847448 16.713554 -9.558096
LeftArm 9.194300 13.297194 -84.245099
LeftForeArm -8.500799 -0.000000 8.429424
LeftHand 0.033730 -0.000000 -10.304805
LeftHandThumb1 -26.253704 0.000000 33.147579
RightShoulder -9.356346 10.687969 -42.226268
RightArm 29.046067 66.532552 51.315340
RightForeArm -1.059427 -0.000000 84.148055
RightHand -12.524071 -0.000000 -37.705814
RightHandThumb1 -24.326973 -0.000000 -32.862282
LeftUpLeg -16.185027 -7.594622 16.739964
LeftLeg 149.843138 -0.000000 -0.000000
LeftFoot 14.316243 4.598449 -25.948017
LeftToeBase 9.003195 -0.000000 -0.000000
RightUpLeg -55.774476 -8.971982 -22.508039
RightLeg 25.114057 -0.000000 -0.000000
RightFoot -24.418054 -18.476393 14.172713
RightToeBase 8.793872 -0.000000 -0.000000
809
root -5.977222 40.351598 -14.665646 9.703571 -51.962227 48.061848
Spine 12.833587 -1.847700 16.013113
Head -17.094629 -29.793182 -13.269190
LeftShoulder -17.812569 16.724153 -9.508841
LeftArm 9.191156 13.278726 -84.305646
LeftForeArm -8.492787 0.000000 8.445970
LeftHand 0.080679 -0.000000 -10.312069
LeftHandThumb1 -26.253704 0.000000 33.147579
RightShoulder -9.389772 11.110831 -42.462535
RightArm 27.741339 66.447180 50.004447
RightForeArm -0.768409 -0.000000 83.953877
RightHand -12.418309 -0.000000 -37.547228
RightHandThumb1 -24.326973 -0.000000 -32.862282
LeftUpLeg -16.236891 -7.541423 16.776703
LeftLeg 149.871971 -0.000000 -0.000000
LeftFoot 14.298142 4.594628 -25.847468
LeftToeBase 8.929537 -0.000000 -0.000000
RightUpLeg -55.976191 -8.977547 -22.425515
RightLeg 25.167480 -0.000000 -0.000000
RightFoot -24.466844 -18.488780 14.167168
RightToeBase 8.789542 -0.000000 -0.000000
810
root -5.993890 40.342547 -14.678470 9.962757 -51.976836 47.952763
Spine 12.838450 -1.783455 16.065902
Head -17.156448 -29.856648 -13.234021
LeftShoulder -17.841953 16.765003 -9.546252
LeftArm 9.280221 13.307200 -84.287536
LeftForeArm -8.475384 -0.000000 8.445016
LeftHand 0.070883 -0.000000 -10.356469
LeftHandThumb1 -26.253704 0.000000 33.147579
RightShoulder -9.442143 11.393220 -42.690050
RightArm 26.780524 66.434743 49.044509
RightForeArm -0.540658 -0.000000 83.781096
RightHand -12.460156 -0.000000 -37.448030
RightHandThumb1 -24.326973 -0.000000 -32.862282
LeftUpLeg -16.262660 -7.487322 16.801690
LeftLeg 149.888445 -0.000000 -0.000000
LeftFoot 14.287388 4.610791 -25.795426
LeftToeBase 8.799689 -0.000000 -0.000000
RightUpLeg -56.155483 -8.988324 -22.320339
RightLeg 25.206055 -0.000000 -0.000000
RightFoot -24.509359 -18.497491 14.138118
RightToeBase 8.783097 -0.000000 -0.000000
811
root -6.008574 40.333565 -14.693337 10.165748 -51.975028 47.840480
Spine 12.925323 -1.798756 16.088616
Head -17.306200 -29.918077 -13.101411
LeftShoulder -17.847741 16.767230 -9.559924
LeftArm 9.307022 13.223859 -84.308873
LeftForeArm -8.474660 -0.000000 8.502693
LeftHand 0.040321 -0.000000 -10.293563
LeftHandThumb1 -26.253704 0.000000 33.147579
RightShoulder -9.604641 10.795591 -42.577762
RightArm 28.361444 66.873642 50.175129
RightForeArm -0.296773 -0.000000 83.466961
RightHand -12.401403 0.000000 -37.274115
RightHandThumb1 -24.326973 -0.000000 -32.862282
LeftUpLeg -16.267708 -7.506822 16.843141
LeftLeg 149.917336 -0.000000 -0.000000
LeftFoot 14.366492 4.552930 -25.918571
LeftToeBase 9.084547 -0.000000 -0.000000
RightUpLeg -56.273548 -8.975446 -22.233102
RightLeg 25.242883 -0.000000 -0.000000
RightFoot -24.544816 -18.511103 14.127598
RightToeBase 8.698426 -0.000000 -0.000000
812
root -6.023579 40.323525 -14.706027 10.404517 -52.003876 47.735350
Spine 12.926414 -1.745923 16.116704
Head -17.308487 -29.928136 -13.144842
LeftShoulder -17.848594 16.740810 -9.565020
LeftArm 9.290638 13.212977 -84.311578
LeftForeArm -8.608214 0.000000 8.508240
LeftHand 0.041362 -0.000000 -10.335909
LeftHandThumb1 -26.253704 0.000000 33.147579
RightShoulder -9.647324 10.850166 -42.696837
RightArm 28.040025 66.945247 49.736971
RightForeArm 0.181260 -0.000000 83.252918
RightHand -12.175813 -0.000000 -37.474889
RightHandThumb1 -24.326973 -0.000000 -32.862282
LeftUpLeg -16.304383 -7.514286 16.871413
LeftLeg 149.915651 -0.000000 -0.000000
LeftFoot 14.529359 4.463121 -26.025948
LeftToeBase 8.961973 -0.000000 -0.000000
RightUpLeg -56.444537 -8.961537 -22.142341
RightLeg 25.281778 -0.000000 -0.000000
RightFoot -24.605602 -18.509143 14.095099
RightToeBase 8.854280 -0.000000 -0.000000
813
root -6.042954 40.314585 -14.721740 10.641385 -52.015767 47.633401
Spine 12.958796 -1.685500 16.113549
Head -17.365022 -29.889077 -13.032901
LeftShoulder -17.841298 16.770393 -9.568396
LeftArm 9.366560 13.234808 -84.296542
LeftForeArm -8.694602 -0.000000 8.477769
LeftHand 0.129171 -0.000000 -10.301130
LeftHandThumb1 -26.253704 0.000000 33.147579
RightShoulder -9.777006 10.988477 -42.772951
RightArm 27.631563 66.900902 49.202316
RightForeArm 0.458159 -0.000000 83.061717
RightHand -12.074450 -0.000000 -37.873338
RightHandThumb1 -24.326973 -0.000000 -32.862282
LeftUpLeg -16.333820 -7.496245 16.876391
LeftLeg 149.927632 -0.000000 -0.000000
LeftFoot 14.532568 4.426256 -26.102301
LeftToeBase 9.057687 -0.000000 -0.000000
RightUpLeg -56.601886 -8.935218 -22.064321
RightLeg 25.313900 -0.000000 -0.000000
RightFoot -24.643651 -18.550161 14.094732
RightToeBase 8.822821 -0.000000 -0.000000
